<?xml version="1.0" encoding="utf-8"?>
<!-- Generator: Adobe Illustrator 26.0.3, SVG Export Plug-In . SVG Version: 6.00 Build 0)  -->
<svg version="1.1" xmlns="http://www.w3.org/2000/svg" xmlns:xlink="http://www.w3.org/1999/xlink" x="0px" y="0px"
	 viewBox="0 0 800 800" style="enable-background:new 0 0 800 800;" xml:space="preserve">
<style type="text/css">
	.st0{fill:none;stroke:#000000;stroke-width:60;stroke-linecap:round;stroke-linejoin:round;stroke-miterlimit:133.3333;}
	.st1{fill:none;stroke:#000000;stroke-width:30;stroke-linecap:round;stroke-linejoin:round;stroke-miterlimit:133.3333;}
</style>
<g id="Ebene_1">
</g>
<g id="Ebene_2">
	<path class="st0" d="M32,31.1c-0.3,207.4-0.6,414.8-0.9,622.2c83.9,39.4,167.7,78.8,251.6,118.2c78.5-51.3,157-102.5,235.6-153.8
		c84.1,51,168.3,101.9,252.4,152.9c0.3-199.4,0.6-398.8,0.9-598.2C690.4,125,609.2,77.6,528,30.2c-80,52.4-160,104.9-240,157.3
		C202.7,135.4,117.3,83.3,32,31.1z"/>
	<path class="st1" d="M174.2,511.5c48.6,16.5,97.2,32.9,145.8,49.4c60.7-29.5,121.4-59,182.1-88.6c45.9,24,91.9,47.9,137.8,71.9
		c-0.9-80.7-1.8-161.4-2.7-242.1c-29.6-16.3-59.1-32.6-88.7-48.8c0,55.7-0.1,111.4-0.1,167.1c-15.7-8.3-31.4-16.6-47.1-24.9
		c-12.7,5-25.5,10.1-38.2,15.1c0-50.8,0.1-101.7,0.1-152.5c-30.2,15.2-60.5,30.4-90.7,45.6c0.3,47.8,0.6,95.5,0.8,143.3
		c-16.3,8.3-32.6,16.6-48.9,24.9c-16.9-8.3-33.8-16.6-50.7-24.9c0-47.1-0.1-94.1-0.1-141.2c-32.9-16.6-65.9-33.3-98.8-49.9
		C174.7,341.2,174.4,426.3,174.2,511.5z"/>
</g>
</svg>
