<?xml version="1.0" encoding="utf-8"?>
<!-- Generator: Adobe Illustrator 26.0.3, SVG Export Plug-In . SVG Version: 6.00 Build 0)  -->
<svg version="1.1" xmlns="http://www.w3.org/2000/svg" xmlns:xlink="http://www.w3.org/1999/xlink" x="0px" y="0px"
	 viewBox="0 0 800 800" style="enable-background:new 0 0 800 800;" xml:space="preserve">
<style type="text/css">
	.st0{fill:none;stroke:#000000;stroke-width:60;stroke-miterlimit:10;}
	.st1{stroke:#000000;stroke-width:60;stroke-miterlimit:10;}
	.st2{display:none;}
</style>
<g id="a">
	<line class="st0" x1="256" y1="669.8" x2="232.4" y2="498.9"/>
	<line class="st0" x1="150.7" y1="597.3" x2="337.8" y2="571.4"/>
	<path class="st0" d="M373.7,302l66.4,82.2c21.7,26.8,57.5,32.6,84.2,13.7c25-17.7,35.2-52.3,24.6-83.7
		c-20.2-59.7-37.4-115.6-52.3-153.1c-15.7-39.5-55.7-62.9-96.1-57.4c-24.4,3.4-45,17.1-58.9,36.6l-100.7,13.9
		c-18.7-15-42.3-22.6-66.6-19.2c-40.4,5.6-72.5,39-76.9,81.3c-4.2,40.1-5.6,98.6-8.8,161.5c-1.7,33,17.5,63.6,46.3,73.9
		c30.8,11,63.7-4.3,77.3-36l41.7-97.1C293.8,313.1,333.7,307.6,373.7,302z"/>
	
		<ellipse transform="matrix(0.9906 -0.1369 0.1369 0.9906 -80.573 75.2668)" class="st1" cx="507.1" cy="623.6" rx="15.2" ry="14.6"/>
	
		<ellipse transform="matrix(0.9906 -0.1369 0.1369 0.9906 -77.4838 90.0553)" class="st1" cx="616.2" cy="608.5" rx="15.2" ry="14.6"/>
	
		<ellipse transform="matrix(0.9906 -0.1369 0.1369 0.9906 -71.9324 81.1881)" class="st1" cx="554.5" cy="563.7" rx="15.2" ry="14.6"/>
	
		<ellipse transform="matrix(0.9906 -0.1369 0.1369 0.9906 -86.5227 84.3059)" class="st1" cx="569.9" cy="671.4" rx="15.9" ry="15.3"/>
	<path class="st0" d="M47.9,749.3c-7-7.5-11.8-13.3-15.2-19.3c-22.3-39.9-8.5-103.7-7.1-317.3C27.3,144,6.5,95,53.2,50.8
		c0,0,10.6-10,24.3-16.9C132.8,6.1,505,23,505,23c157.8,7.2,244.9-14.2,271.3,35.2c10.2,19,4.3,20.4,5.3,99.9
		c1.3,96.3-4,110.1-13.8,119.9c-26.3,26.2-58.8-0.6-101.9,24.2c-40.1,23.1-66.3,77.8-58.4,129.4c6.5,42.3,35,77.2,66.9,94.7
		c45.4,24.8,77,2.7,98.8,28.4c11.1,13.1,8.4,25.3,7.9,102.3c-0.5,79.4,2.3,78.3-0.8,85.4C755.9,797.5,632.6,763.8,430,774
		C236.1,783.8,119.7,826.2,47.9,749.3z"/>
</g>
<g id="Ebene_2" class="st2">
</g>
</svg>
