<?xml version="1.0" encoding="utf-8"?>
<!-- Generator: Adobe Illustrator 26.0.3, SVG Export Plug-In . SVG Version: 6.00 Build 0)  -->
<svg version="1.1" id="Ebene_1" xmlns="http://www.w3.org/2000/svg" xmlns:xlink="http://www.w3.org/1999/xlink" x="0px" y="0px"
	 viewBox="0 0 800 800" style="enable-background:new 0 0 800 800;" xml:space="preserve">
<style type="text/css">
	.st0{fill:#1C274C;stroke:#000000;stroke-width:30;stroke-miterlimit:10;}
	.st1{fill:none;stroke:#1C274C;stroke-width:66.6667;stroke-linecap:round;stroke-linejoin:round;stroke-miterlimit:133.3333;}
</style>
<path class="st0" d="M436.2,712.9l21.5,12.7L436.2,712.9z M454.3,682.4l-21.5-12.7L454.3,682.4z M345.7,682.4l-21.5,12.7l0,0
	L345.7,682.4z M363.8,712.9l21.5-12.7L363.8,712.9z M41.7,350c0,13.8,11.2,25,25,25s25-11.2,25-25H41.7z M102.5,520.9
	c-5.3-12.8-19.9-18.8-32.7-13.5S51,527.3,56.3,540L102.5,520.9z M259.7,633l-0.4,25L259.7,633z M169.6,620.6l-9.6,23.1l0,0
	L169.6,620.6z M720.6,530.4l23.1,9.6l0,0L720.6,530.4z M540.3,633l-0.4-25L540.3,633z M630.4,620.6l9.6,23.1l0,0L630.4,620.6z
	 M653.7,91.2l-13.1,21.3L653.7,91.2z M708.8,146.3l21.3-13.1l0,0L708.8,146.3z M146.3,91.2l-13.1-21.3l0,0L146.3,91.2z M91.2,146.3
	l-21.3-13.1l0,0L91.2,146.3z M313.4,640.3l12.6-21.6l0,0L313.4,640.3z M457.7,725.7l18.1-30.5l-43-25.5l-18.1,30.5L457.7,725.7z
	 M324.2,695.1l18.1,30.5l43-25.5l-18.1-30.5L324.2,695.1z M414.7,700.2c-6.4,10.9-23,10.9-29.4,0l-43,25.5
	c25.8,43.6,89.7,43.6,115.5,0L414.7,700.2z M350,91.7h100v-50H350V91.7z M708.3,350v33.3h50V350H708.3z M260.1,608.1
	c-41.8-0.7-63.8-3.4-81-10.5L160,643.7c26.8,11.1,57.4,13.6,99.2,14.3L260.1,608.1z M56.3,540C75.7,587,113,624.3,160,643.7
	l19.1-46.2c-34.7-14.4-62.3-42-76.7-76.7L56.3,540z M708.3,383.3c0,39.2,0,67.3-1.5,89.5c-1.5,22-4.4,36.3-9.3,48.1l46.2,19.1
	c7.8-18.9,11.3-39.3,12.9-63.8c1.7-24.3,1.6-54.4,1.6-92.9H708.3z M540.8,658c41.8-0.7,72.4-3.2,99.2-14.3l-19.1-46.2
	c-17.2,7.1-39.1,9.8-81,10.5L540.8,658z M697.5,520.9c-14.4,34.7-42,62.3-76.7,76.7l19.1,46.2c47-19.5,84.3-56.8,103.7-103.7
	L697.5,520.9z M450,91.7c55,0,94.6,0,125.4,3c30.5,2.9,49.8,8.4,65.3,17.9l26.1-42.6c-24.6-15.1-52.6-21.8-86.7-25.1
	c-33.7-3.2-76.1-3.2-130.1-3.2V91.7z M758.3,350c0-54.1,0-96.4-3.2-130.1c-3.2-34.1-10-62.1-25.1-86.7l-42.6,26.1
	c9.5,15.5,15,34.8,17.9,65.3c2.9,30.8,3,70.4,3,125.4H758.3z M640.7,112.5c19.1,11.7,35.1,27.7,46.8,46.8l42.6-26.1
	c-15.8-25.8-37.5-47.5-63.3-63.3L640.7,112.5z M350,41.7c-54.1,0-96.4,0-130.1,3.2c-34.1,3.2-62.1,10-86.7,25.1l26.1,42.6
	c15.5-9.5,34.8-15,65.3-17.9c30.8-2.9,70.4-3,125.4-3V41.7z M91.7,350c0-55,0-94.6,3-125.4c2.9-30.5,8.4-49.8,17.9-65.3l-42.6-26.1
	c-15.1,24.6-21.8,52.6-25.1,86.7c-3.2,33.7-3.2,76.1-3.2,130.1H91.7z M133.2,69.9c-25.8,15.8-47.5,37.5-63.3,63.3l42.6,26.1
	c11.7-19.1,27.7-35.1,46.8-46.8L133.2,69.9z M367.2,669.7c-6.8-11.4-12.7-21.5-18.5-29.4c-6.1-8.3-13.1-15.9-22.7-21.5l-25.1,43.2
	c1.6,0.9,3.7,2.6,7.5,7.7c4,5.6,8.6,13.2,15.9,25.5L367.2,669.7z M259.2,658c14.6,0.3,23.9,0.4,31,1.2c6.6,0.7,9.2,1.8,10.7,2.7
	l25.1-43.2c-9.8-5.7-19.9-8-30.3-9.2c-9.9-1.1-21.9-1.3-35.6-1.5L259.2,658z M475.8,695.1c7.2-12.2,11.8-19.9,15.9-25.5
	c3.7-5.1,5.9-6.8,7.5-7.7L474,618.7c-9.7,5.6-16.7,13.1-22.7,21.5c-5.8,7.9-11.7,18-18.5,29.4L475.8,695.1z M539.9,608.1
	c-13.7,0.2-25.7,0.4-35.6,1.5c-10.4,1.2-20.5,3.5-30.3,9.2l25.1,43.2c1.5-0.9,4.1-1.9,10.7-2.7c7.1-0.8,16.3-1,31-1.2L539.9,608.1z"
	/>
<path class="st1" d="M266.7,366.7h0.3 M399.7,366.7h0.3 M533,366.7h0.3"/>
</svg>
