<?xml version="1.0" encoding="utf-8"?>
<!-- Generator: Adobe Illustrator 26.0.3, SVG Export Plug-In . SVG Version: 6.00 Build 0)  -->
<svg version="1.1" id="Ebene_1" xmlns="http://www.w3.org/2000/svg" xmlns:xlink="http://www.w3.org/1999/xlink" x="0px" y="0px"
	 viewBox="0 0 800 800" style="enable-background:new 0 0 800 800;" xml:space="preserve">
<style type="text/css">
	.st0{fill:none;stroke:#000000;stroke-width:60;stroke-linecap:round;stroke-linejoin:round;stroke-miterlimit:133.3333;}
</style>
<path class="st0" d="M88,125c50.7-27.9,136.5-66.4,249-77c167.9-15.8,297.2,39.8,353,68c-1.7,52.7-3.3,105.3-5,158
	c-199,1.7-398,3.3-597,5C88,227.7,88,176.3,88,125z"/>
<path class="st0" d="M138,305c165.3-2,330.7-4,496-6c0,26.3,0,52.7,0,79c-164.7-0.3-329.3-0.7-494-1C139.3,353,138.7,329,138,305z"
	/>
<path class="st0" d="M333,694c4.5,38,37.4,64.6,71,62c27.8-2.2,52.3-24,59-54c-1.7-104.3-3.3-208.7-5-313c-41.3,0.3-82.7,0.7-124,1
	C333.7,491.3,333.3,592.7,333,694z"/>
<path class="st0" d="M648,487c-30.6,1.3-66.4,68.5-71,164c-2.1,51.6,41.5,91,85,87c38.2-3.5,71.3-40.1,70-85
	C722,552.1,679.1,485.7,648,487z"/>
</svg>
