<?xml version="1.0" encoding="utf-8"?>
<!-- Generator: Adobe Illustrator 26.0.3, SVG Export Plug-In . SVG Version: 6.00 Build 0)  -->
<svg version="1.1" id="Ebene_1" xmlns="http://www.w3.org/2000/svg" xmlns:xlink="http://www.w3.org/1999/xlink" x="0px" y="0px"
	 viewBox="0 0 800 800" style="enable-background:new 0 0 800 800;" xml:space="preserve">
<style type="text/css">
	.st0{fill:none;stroke:#000000;stroke-width:60;stroke-linecap:round;stroke-linejoin:round;stroke-miterlimit:133.3333;}
</style>
<path class="st0" d="M391,31c221.1-6.6,398,193.9,381,404c-13.8,170-152.2,317.9-330,337C247.6,792.8,67.8,653,36,466
	C-0.5,251.6,168.2,37.6,391,31z"/>
<path class="st0" d="M388,32c-143.8,73.9-232.5,223.6-227,383c5.1,149.9,92.8,286.2,228,355"/>
<path class="st0" d="M401,35c-5.7,120.6-8.4,247.8-7,381c1.3,122.3,5.9,239.5,13,351"/>
<path class="st0" d="M608,367"/>
<path class="st0" d="M423,38c9.3,5.4,213.5,127.3,216,366c2.3,224.1-175.2,348.7-189,358"/>
<path class="st0" d="M257,131"/>
<path class="st0" d="M744,269c-45.5-30.3-175.7-108.4-357.8-103.3C225.4,170.1,110.7,237,64,268"/>
<path class="st0" d="M767,404.4c-120.7-5.3-247.9-7.6-381-5.8c-122.3,1.7-239.4,6.7-351,14.2"/>
<path class="st0" d="M738,540c-64.5,29.1-183,72.6-337,73c-155,0.4-274.3-43-339-72"/>
</svg>
