<?xml version="1.0" encoding="utf-8"?>
<!-- Generator: Adobe Illustrator 26.0.3, SVG Export Plug-In . SVG Version: 6.00 Build 0)  -->
<svg version="1.1" id="Ebene_1" xmlns="http://www.w3.org/2000/svg" xmlns:xlink="http://www.w3.org/1999/xlink" x="0px" y="0px"
	 viewBox="0 0 800 800" style="enable-background:new 0 0 800 800;" xml:space="preserve">
<style type="text/css">
	.st0{fill:none;stroke:#000000;stroke-width:30;stroke-linecap:round;stroke-linejoin:round;stroke-miterlimit:133.3333;}
	.st1{fill:none;stroke:#000000;stroke-width:20;stroke-linecap:round;stroke-linejoin:round;stroke-miterlimit:133.3333;}
</style>
<path class="st0" d="M113,767c118.7-1.3,237.3-2.7,356-4c-38.8-206.4-163.2-322.6-237-308C164.1,468.4,103.8,599.3,113,767z"/>
<path class="st0" d="M248,234c-29.2-4.3-56.5,9.6-72.6,27.4c-37.7,42-24,120,18.2,148.9c20.5,14,43,13.5,49.4,12.7
	c43.3-5.4,65.6-44.9,68.5-50.4c1.9-3.6,22.3-44.5,1.2-87.5C306.9,273.3,287.2,239.7,248,234z"/>
<path class="st0" d="M638,8c-29.7,0-58.5,22.1-62,54c-3.5,32.1,20.2,59.8,48,66c36.6,8.2,76.7-21.4,77-59C701.2,36.7,671.9,8,638,8z
	"/>
<path class="st1" d="M485,118c98,1.2,196,2.5,294,3.7c-0.7,49.1-1.3,98.2-2,147.3c-100-1.4-200-2.8-300-4.2
	C479.7,215.9,482.3,166.9,485,118z"/>
<path class="st0" d="M67.5,66c-13.9,0-27.4,10.2-29,25c-1.7,14.9,9.4,27.7,22.5,30.6c17.1,3.8,35.9-9.9,36-27.3
	C97.1,79.3,83.4,66,67.5,66z"/>
<path class="st1" d="M142,247c5.9-11.5,21-37.1,51.8-55c44.3-25.7,88.8-16.5,99.2-14c-8.1-15-16.1-30-24.2-45
	c-18.3,0-51.5,2.9-88,23c-31.3,17.2-52.1,40-63.8,55C125.3,223,133.7,235,142,247z"/>
<path class="st1" d="M118,197c13.5-13.7,35.2-32.5,66-48c29.9-15,57.2-21.2,76-24C140.9,63.8,108.4,60,102,69
	c-4.5,6.3,4.8,17.5,12,43C123.6,145.9,121.5,176.3,118,197z"/>
<path class="st0" d="M606.4,183.7c-11.3-8.1-28.2-7.8-38.2,3.2c-10.1,11.1-8.6,27.9,0.3,37.9c11.6,13.1,34.9,13,45.2-1
	C622.5,211.8,619.2,193,606.4,183.7z"/>
<path class="st0" d="M5.5,782.3c34.5-3.8,69-7.6,103.5-11.3c-3.7-36.7-4.7-91.1,11-154c10.9-43.4,26.7-78.7,41-105
	c-11.7-27.3-23.8-41.2-36.5-41.7C88.9,469,49.2,573,5.5,782.3z"/>
<path class="st0" d="M156,284c-8.1-14.2-40.8-13.8-63.4-4.7c-27.7,11.2-53.5,41.1-53.2,76.4c0.5,48.6,50.4,90.8,90,82.6
	c15.2-3.1,35-14.9,40.6-33.4c8.7-29-25.6-48.5-19-90C153.6,298.4,160.6,292.1,156,284z"/>
<path class="st0" d="M472,762c52.5,4.4,105,8.9,157.5,13.3c-157.4-306.8-218.2-312.7-237-308c-7.3,1.8-40.6,13.2-43.5,33.7
	c-2.1,15.3,13.7,29,18,33C390,555.2,423.7,611.5,472,762z"/>
<path class="st0" d="M408.5,245.3c-37.8-5.1-79,18.1-86.2,44.8c-2.7,10,1.1,14.1-1.2,38.9c-2.5,26.3-7.6,31.1-7.1,41.8
	c1.5,29.5,44.4,67.3,89.5,63.6c47.5-4,81.8-52.6,80-99C481.9,293.5,451.4,251.1,408.5,245.3z"/>
</svg>
